<svg width="88" height="88" viewBox="0 0 88 88" fill="none" xmlns="http://www.w3.org/2000/svg">
    <path d="M55 7.33333H22C20.0551 7.33333 18.1898 8.10594 16.8146 9.48121C15.4393 10.8565 14.6667 12.7217 14.6667 14.6667V73.3333C14.6667 75.2782 15.4393 77.1435 16.8146 78.5188C18.1898 79.894 20.0551 80.6667 22 80.6667H66C67.9449 80.6667 69.8102 79.894 71.1855 78.5188C72.5607 77.1435 73.3334 75.2782 73.3334 73.3333V25.6667L55 7.33333Z" stroke="#435265" stroke-width="2" stroke-linecap="round" stroke-linejoin="round" />
    <path d="M51.3333 7.33333V22C51.3333 23.9449 52.1059 25.8102 53.4812 27.1854C54.8565 28.5607 56.7217 29.3333 58.6666 29.3333H73.3333" stroke="#435265" stroke-width="2" stroke-linecap="round" stroke-linejoin="round" />
    <path d="M36.6666 33H29.3333" stroke="#435265" stroke-width="2" stroke-linecap="round" stroke-linejoin="round" />
    <path d="M58.6666 47.6667H29.3333" stroke="#435265" stroke-width="2" stroke-linecap="round" stroke-linejoin="round" />
    <path d="M58.6666 62.3333H29.3333" stroke="#435265" stroke-width="2" stroke-linecap="round" stroke-linejoin="round" />
</svg>